<svg width="627" height="318" viewBox="0 0 627 318" fill="none" xmlns="http://www.w3.org/2000/svg">
<path d="M59.4866 313.43L58.2871 313.16C71.6621 253.771 105.275 199.841 152.933 161.303C188.964 132.213 231.817 112.757 277.458 104.767C323.099 96.7781 370.025 100.518 413.818 115.636C457.612 130.753 496.832 156.75 527.784 191.179C558.737 225.608 580.405 267.337 590.748 312.435L589.55 312.707C561.237 188.585 452.286 101.896 324.6 101.896C198.587 101.896 87.0909 190.859 59.4866 313.43Z" fill="#3F3D56"/>
<path d="M523.869 168.324C542.311 168.324 557.261 153.397 557.261 134.983C557.261 116.57 542.311 101.643 523.869 101.643C505.427 101.643 490.478 116.57 490.478 134.983C490.478 153.397 505.427 168.324 523.869 168.324Z" fill="#FF6584"/>
<path d="M511.184 268.28H509.955V316.772H511.184V268.28Z" fill="#3F3D56"/>
<path d="M522.532 274.459C522.61 291.416 510.662 305.218 510.662 305.218C510.662 305.218 498.586 291.527 498.508 274.57C498.43 257.613 510.378 243.812 510.378 243.812C510.378 243.812 522.453 257.503 522.532 274.459Z" fill="#6C63FF"/>
<path opacity="0.1" d="M522.532 274.459C522.61 291.416 510.662 305.218 510.662 305.218C510.662 305.218 498.586 291.527 498.508 274.57C498.43 257.613 510.378 243.812 510.378 243.812C510.378 243.812 522.453 257.503 522.532 274.459Z" fill="black"/>
<path opacity="0.4" d="M278.812 171.867C289.422 171.867 298.023 163.279 298.023 152.686C298.023 142.093 289.422 133.505 278.812 133.505C268.203 133.505 259.602 142.093 259.602 152.686C259.602 163.279 268.203 171.867 278.812 171.867Z" fill="#6C63FF"/>
<path opacity="0.4" d="M243.259 175.302C250.701 175.302 256.735 169.278 256.735 161.847C256.735 154.416 250.701 148.392 243.259 148.392C235.816 148.392 229.783 154.416 229.783 161.847C229.783 169.278 235.816 175.302 243.259 175.302Z" fill="#6C63FF"/>
<path opacity="0.4" d="M98.7863 213.974C106.229 213.974 112.262 207.95 112.262 200.518C112.262 193.087 106.229 187.063 98.7863 187.063C91.3437 187.063 85.3103 193.087 85.3103 200.518C85.3103 207.95 91.3437 213.974 98.7863 213.974Z" fill="#6C63FF"/>
<path opacity="0.4" d="M497.236 170.289C507.846 170.289 516.447 161.701 516.447 151.108C516.447 140.515 507.846 131.927 497.236 131.927C486.627 131.927 478.026 140.515 478.026 151.108C478.026 161.701 486.627 170.289 497.236 170.289Z" fill="#6C63FF"/>
<path d="M5.61148 311.38C6.65291 315.224 10.2199 317.605 10.2199 317.605C10.2199 317.605 12.0985 313.753 11.0571 309.909C10.0157 306.066 6.44867 303.685 6.44867 303.685C6.44867 303.685 4.57009 307.537 5.61148 311.38Z" fill="#3F3D56"/>
<path d="M7.14168 310.554C9.99929 313.332 10.3484 317.601 10.3484 317.601C10.3484 317.601 6.06429 317.368 3.20667 314.59C0.34906 311.813 0 307.543 0 307.543C0 307.543 4.28407 307.777 7.14168 310.554Z" fill="#6C63FF"/>
<path d="M381.854 311.38C382.896 315.224 386.463 317.605 386.463 317.605C386.463 317.605 388.341 313.753 387.3 309.909C386.259 306.066 382.691 303.685 382.691 303.685C382.691 303.685 380.813 307.537 381.854 311.38Z" fill="#3F3D56"/>
<path d="M383.385 310.554C386.242 313.332 386.591 317.601 386.591 317.601C386.591 317.601 382.307 317.368 379.45 314.59C376.592 311.813 376.243 307.543 376.243 307.543C376.243 307.543 380.527 307.777 383.385 310.554Z" fill="#6C63FF"/>
<path d="M12.6854 282.488L10.1421 278.255L33.881 257.939H94.9246V263.864L72.8812 287.567L47.4461 292.646L12.6854 282.488Z" fill="#3F3D56"/>
<path d="M105.432 269.861V256.616H97.4402V260.793L94.9245 257.939L74.5766 278.255L71.1849 281.641L66.946 298.572L74.5766 317.195H113.576V279.102L105.432 269.861Z" fill="#CCCCCC"/>
<path d="M74.5766 278.255H10.1421V317.195H74.5766V278.255Z" fill="#F2F2F2"/>
<path d="M65.6745 290.53H52.1094V302.381H65.6745V290.53Z" fill="#3F3D56"/>
<path d="M46.5985 290.106H34.729V317.195H46.5985V290.106Z" fill="#CCCCCC"/>
<path d="M21.1637 294.339V290.106H16.077V294.339H20.7395H21.1637Z" fill="#3F3D56"/>
<path d="M20.7395 297.725H16.077V301.958H21.1637V297.725H20.7395Z" fill="#3F3D56"/>
<path d="M29.6421 290.106H24.5552V294.339H29.6421V290.106Z" fill="#3F3D56"/>
<path d="M29.6421 297.725H24.5552V301.958H29.6421V297.725Z" fill="#3F3D56"/>
<path d="M92.8048 294.762V290.529H87.7175V294.762H92.3806H92.8048Z" fill="#3F3D56"/>
<path d="M92.3806 298.148H87.7175V302.381H92.8048V298.148H92.3806Z" fill="#3F3D56"/>
<path d="M101.283 290.53H96.196V294.762H101.283V290.53Z" fill="#3F3D56"/>
<path d="M101.283 298.148H96.196V302.381H101.283V298.148Z" fill="#3F3D56"/>
<path d="M257.981 282.488L255.438 278.255L279.176 257.939H340.22V263.864L318.177 287.567L292.741 292.646L257.981 282.488Z" fill="#3F3D56"/>
<path d="M350.728 269.861V256.616H342.736V260.793L340.22 257.939L319.872 278.255L316.481 281.641L312.242 298.572L319.872 317.195H358.872V279.102L350.728 269.861Z" fill="#CCCCCC"/>
<path d="M319.872 278.255H255.438V317.195H319.872V278.255Z" fill="#F2F2F2"/>
<path d="M310.97 290.53H297.405V302.381H310.97V290.53Z" fill="#3F3D56"/>
<path d="M291.894 290.106H280.024V317.195H291.894V290.106Z" fill="#CCCCCC"/>
<path d="M266.459 294.339V290.106H261.373V294.339H266.035H266.459Z" fill="#3F3D56"/>
<path d="M266.035 297.725H261.373V301.958H266.459V297.725H266.035Z" fill="#3F3D56"/>
<path d="M274.938 290.106H269.851V294.339H274.938V290.106Z" fill="#3F3D56"/>
<path d="M274.938 297.725H269.851V301.958H274.938V297.725Z" fill="#3F3D56"/>
<path d="M338.1 294.762V290.529H333.013V294.762H337.676H338.1Z" fill="#3F3D56"/>
<path d="M337.676 298.148H333.013V302.381H338.1V298.148H337.676Z" fill="#3F3D56"/>
<path d="M346.578 290.53H341.491V294.762H346.578V290.53Z" fill="#3F3D56"/>
<path d="M346.578 298.148H341.491V302.381H346.578V298.148Z" fill="#3F3D56"/>
<path d="M143.25 211.38L139.011 207.993L162.75 186.83H222.945V205.454L183.946 231.697L143.25 211.38Z" fill="#3F3D56"/>
<path d="M233.921 198.702V187.253H225.928V190.057L222.946 186.83L203.445 207.993L195.815 213.073L183.984 299.38L201.827 317.195H243.293V208.84L233.921 198.702Z" fill="#CCCCCC"/>
<path d="M203.445 207.994H139.011V317.195H203.445V207.994Z" fill="#F2F2F2"/>
<path d="M175.891 290.53H164.022V317.195H175.891V290.53Z" fill="#CCCCCC"/>
<path d="M151.304 298.148V293.916H146.218V298.148H150.881H151.304Z" fill="#3F3D56"/>
<path d="M150.881 301.534H146.218V305.767H151.304V301.534H150.881Z" fill="#3F3D56"/>
<path d="M159.783 293.916H154.696V298.148H159.783V293.916Z" fill="#3F3D56"/>
<path d="M159.783 301.534H154.696V305.767H159.783V301.534Z" fill="#3F3D56"/>
<path d="M186.065 298.148V293.916H180.978V298.148H185.641H186.065Z" fill="#3F3D56"/>
<path d="M185.641 301.534H180.978V305.767H186.065V301.534H185.641Z" fill="#3F3D56"/>
<path d="M194.543 293.916H189.457V298.148H194.543V293.916Z" fill="#3F3D56"/>
<path d="M194.543 301.534H189.457V305.767H194.543V301.534Z" fill="#3F3D56"/>
<path d="M221.674 213.496V209.263H216.587V213.496H221.25H221.674Z" fill="#3F3D56"/>
<path d="M221.25 216.882H216.587V221.115H221.674V216.882H221.25Z" fill="#3F3D56"/>
<path d="M230.152 209.264H225.065V213.496H230.152V209.264Z" fill="#3F3D56"/>
<path d="M230.152 216.882H225.065V221.115H230.152V216.882Z" fill="#3F3D56"/>
<path d="M221.674 237.199V232.966H216.587V237.199H221.25H221.674Z" fill="#3F3D56"/>
<path d="M221.25 240.585H216.587V244.817H221.674V240.585H221.25Z" fill="#3F3D56"/>
<path d="M230.152 232.966H225.065V237.199H230.152V232.966Z" fill="#3F3D56"/>
<path d="M230.152 240.585H225.065V244.817H230.152V240.585Z" fill="#3F3D56"/>
<path d="M221.674 260.902V256.669H216.587V260.902H221.25H221.674Z" fill="#3F3D56"/>
<path d="M221.25 264.287H216.587V268.52H221.674V264.287H221.25Z" fill="#3F3D56"/>
<path d="M230.152 256.669H225.065V260.901H230.152V256.669Z" fill="#3F3D56"/>
<path d="M230.152 264.287H225.065V268.52H230.152V264.287Z" fill="#3F3D56"/>
<path d="M221.674 284.604V280.371H216.587V284.604H221.25H221.674Z" fill="#3F3D56"/>
<path d="M221.25 287.99H216.587V292.222H221.674V287.99H221.25Z" fill="#3F3D56"/>
<path d="M230.152 280.371H225.065V284.604H230.152V280.371Z" fill="#3F3D56"/>
<path d="M230.152 287.99H225.065V292.223H230.152V287.99Z" fill="#3F3D56"/>
<path d="M195.391 213.496H146.218V223.654H195.391V213.496Z" fill="#3F3D56"/>
<path d="M195.391 233.813H146.218V243.971H195.391V233.813Z" fill="#3F3D56"/>
<path d="M195.391 254.129H146.218V264.287H195.391V254.129Z" fill="#3F3D56"/>
<path d="M195.391 274.446H146.218V284.604H195.391V274.446Z" fill="#3F3D56"/>
<path d="M391.005 211.38L386.766 207.993L410.505 186.83H470.7V205.454L431.7 231.697L391.005 211.38Z" fill="#3F3D56"/>
<path d="M481.675 198.702V187.253H473.683V190.057L470.7 186.83L451.2 207.993L443.57 213.073L431.739 299.38L449.581 317.195H491.048V208.84L481.675 198.702Z" fill="#CCCCCC"/>
<path d="M451.2 207.994H386.766V317.195H451.2V207.994Z" fill="#F2F2F2"/>
<path d="M423.646 290.53H411.776V317.195H423.646V290.53Z" fill="#CCCCCC"/>
<path d="M399.059 298.148V293.916H393.972V298.148H398.635H399.059Z" fill="#3F3D56"/>
<path d="M398.635 301.534H393.972V305.767H399.059V301.534H398.635Z" fill="#3F3D56"/>
<path d="M407.537 293.916H402.45V298.148H407.537V293.916Z" fill="#3F3D56"/>
<path d="M407.537 301.534H402.45V305.767H407.537V301.534Z" fill="#3F3D56"/>
<path d="M433.82 298.148V293.916H428.733V298.148H433.396H433.82Z" fill="#3F3D56"/>
<path d="M433.396 301.534H428.733V305.767H433.82V301.534H433.396Z" fill="#3F3D56"/>
<path d="M442.298 293.916H437.211V298.148H442.298V293.916Z" fill="#3F3D56"/>
<path d="M442.298 301.534H437.211V305.767H442.298V301.534Z" fill="#3F3D56"/>
<path d="M469.428 213.496V209.263H464.341V213.496H469.004H469.428Z" fill="#3F3D56"/>
<path d="M469.004 216.882H464.341V221.115H469.428V216.882H469.004Z" fill="#3F3D56"/>
<path d="M477.907 209.264H472.82V213.496H477.907V209.264Z" fill="#3F3D56"/>
<path d="M477.907 216.882H472.82V221.115H477.907V216.882Z" fill="#3F3D56"/>
<path d="M469.428 237.199V232.966H464.341V237.199H469.004H469.428Z" fill="#3F3D56"/>
<path d="M469.004 240.585H464.341V244.817H469.428V240.585H469.004Z" fill="#3F3D56"/>
<path d="M477.907 232.966H472.82V237.199H477.907V232.966Z" fill="#3F3D56"/>
<path d="M477.907 240.585H472.82V244.817H477.907V240.585Z" fill="#3F3D56"/>
<path d="M469.428 260.902V256.669H464.341V260.902H469.004H469.428Z" fill="#3F3D56"/>
<path d="M469.004 264.287H464.341V268.52H469.428V264.287H469.004Z" fill="#3F3D56"/>
<path d="M477.907 256.669H472.82V260.901H477.907V256.669Z" fill="#3F3D56"/>
<path d="M477.907 264.287H472.82V268.52H477.907V264.287Z" fill="#3F3D56"/>
<path d="M469.428 284.604V280.371H464.341V284.604H469.004H469.428Z" fill="#3F3D56"/>
<path d="M469.004 287.99H464.341V292.222H469.428V287.99H469.004Z" fill="#3F3D56"/>
<path d="M477.907 280.371H472.82V284.604H477.907V280.371Z" fill="#3F3D56"/>
<path d="M477.907 287.99H472.82V292.223H477.907V287.99Z" fill="#3F3D56"/>
<path d="M443.146 213.496H393.972V223.654H443.146V213.496Z" fill="#3F3D56"/>
<path d="M443.146 233.813H393.972V243.971H443.146V233.813Z" fill="#3F3D56"/>
<path d="M443.146 254.129H393.972V264.287H443.146V254.129Z" fill="#3F3D56"/>
<path d="M443.146 274.446H393.972V284.604H443.146V274.446Z" fill="#3F3D56"/>
<path d="M526.87 211.38L522.631 207.993L546.37 186.83H606.565V205.454L567.566 231.697L526.87 211.38Z" fill="#3F3D56"/>
<path d="M617.54 198.702V187.253H609.548V190.057L606.565 186.83L587.065 207.993L579.435 213.073L567.604 299.38L585.447 317.195H626.913V208.84L617.54 198.702Z" fill="#CCCCCC"/>
<path d="M587.066 207.994H522.631V317.195H587.066V207.994Z" fill="#F2F2F2"/>
<path d="M559.511 290.53H547.642V317.195H559.511V290.53Z" fill="#CCCCCC"/>
<path d="M534.924 298.148V293.916H529.838V298.148H534.501H534.924Z" fill="#3F3D56"/>
<path d="M534.501 301.534H529.838V305.767H534.924V301.534H534.501Z" fill="#3F3D56"/>
<path d="M543.403 293.916H538.316V298.148H543.403V293.916Z" fill="#3F3D56"/>
<path d="M543.403 301.534H538.316V305.767H543.403V301.534Z" fill="#3F3D56"/>
<path d="M569.685 298.148V293.916H564.598V298.148H569.261H569.685Z" fill="#3F3D56"/>
<path d="M569.261 301.534H564.598V305.767H569.685V301.534H569.261Z" fill="#3F3D56"/>
<path d="M578.164 293.916H573.077V298.148H578.164V293.916Z" fill="#3F3D56"/>
<path d="M578.164 301.534H573.077V305.767H578.164V301.534Z" fill="#3F3D56"/>
<path d="M605.294 213.496V209.263H600.207V213.496H604.87H605.294Z" fill="#3F3D56"/>
<path d="M604.87 216.882H600.207V221.115H605.294V216.882H604.87Z" fill="#3F3D56"/>
<path d="M613.772 209.264H608.685V213.496H613.772V209.264Z" fill="#3F3D56"/>
<path d="M613.772 216.882H608.685V221.115H613.772V216.882Z" fill="#3F3D56"/>
<path d="M605.294 237.199V232.966H600.207V237.199H604.87H605.294Z" fill="#3F3D56"/>
<path d="M604.87 240.585H600.207V244.817H605.294V240.585H604.87Z" fill="#3F3D56"/>
<path d="M613.772 232.966H608.685V237.199H613.772V232.966Z" fill="#3F3D56"/>
<path d="M613.772 240.585H608.685V244.817H613.772V240.585Z" fill="#3F3D56"/>
<path d="M605.294 260.902V256.669H600.207V260.902H604.87H605.294Z" fill="#3F3D56"/>
<path d="M604.87 264.287H600.207V268.52H605.294V264.287H604.87Z" fill="#3F3D56"/>
<path d="M613.772 256.669H608.685V260.901H613.772V256.669Z" fill="#3F3D56"/>
<path d="M613.772 264.287H608.685V268.52H613.772V264.287Z" fill="#3F3D56"/>
<path d="M605.294 284.604V280.371H600.207V284.604H604.87H605.294Z" fill="#3F3D56"/>
<path d="M604.87 287.99H600.207V292.222H605.294V287.99H604.87Z" fill="#3F3D56"/>
<path d="M613.772 280.371H608.685V284.604H613.772V280.371Z" fill="#3F3D56"/>
<path d="M613.772 287.99H608.685V292.223H613.772V287.99Z" fill="#3F3D56"/>
<path d="M579.011 213.496H529.838V223.654H579.011V213.496Z" fill="#3F3D56"/>
<path d="M579.011 233.813H529.838V243.971H579.011V233.813Z" fill="#3F3D56"/>
<path d="M579.011 254.129H529.838V264.287H579.011V254.129Z" fill="#3F3D56"/>
<path d="M579.011 274.446H529.838V284.604H579.011V274.446Z" fill="#3F3D56"/>
<path d="M126.95 268.28H125.72V316.772H126.95V268.28Z" fill="#3F3D56"/>
<path d="M138.297 274.459C138.375 291.416 126.427 305.218 126.427 305.218C126.427 305.218 114.352 291.527 114.273 274.57C114.195 257.613 126.143 243.812 126.143 243.812C126.143 243.812 138.219 257.503 138.297 274.459Z" fill="#6C63FF"/>
<path d="M249.905 268.28H248.675V316.772H249.905V268.28Z" fill="#3F3D56"/>
<path d="M261.252 274.459C261.33 291.416 249.382 305.218 249.382 305.218C249.382 305.218 237.307 291.527 237.228 274.57C237.15 257.613 249.098 243.812 249.098 243.812C249.098 243.812 261.174 257.503 261.252 274.459Z" fill="#6C63FF"/>
<path d="M495.2 268.28H493.97V316.772H495.2V268.28Z" fill="#3F3D56"/>
<path d="M506.547 274.459C506.626 291.416 494.677 305.218 494.677 305.218C494.677 305.218 482.602 291.527 482.524 274.57C482.446 257.613 494.394 243.812 494.394 243.812C494.394 243.812 506.469 257.503 506.547 274.459Z" fill="#6C63FF"/>
<path d="M331.977 105.61C344.879 105.61 355.339 103.26 355.339 100.362C355.339 97.4631 344.879 95.1133 331.977 95.1133C319.075 95.1133 308.616 97.4631 308.616 100.362C308.616 103.26 319.075 105.61 331.977 105.61Z" fill="#6C63FF"/>
<path d="M358.413 27.0086C358.413 41.9251 331.362 84.095 331.362 84.095C331.362 84.095 304.312 41.9251 304.312 27.0086C304.312 19.8455 307.162 12.9757 312.235 7.91064C317.308 2.84554 324.188 0 331.362 0C338.537 0 345.417 2.84554 350.49 7.91064C355.563 12.9757 358.413 19.8455 358.413 27.0086Z" fill="#6C63FF"/>
<path d="M331.362 42.3544C339.851 42.3544 346.732 35.4839 346.732 27.0086C346.732 18.5334 339.851 11.6628 331.362 11.6628C322.874 11.6628 315.993 18.5334 315.993 27.0086C315.993 35.4839 322.874 42.3544 331.362 42.3544Z" fill="#F2F2F2"/>
</svg>
